<svg width="498" height="498" viewBox="0 0 498 498" fill="none" xmlns="http://www.w3.org/2000/svg">
<rect x="5" y="5" width="488" height="488" rx="25" fill="white" stroke="black" stroke-width="10"/>
<path opacity="0.3" d="M10 30C10 18.9543 18.9543 10 30 10H32V488H30C18.9543 488 10 479.046 10 468V30Z" fill="#FFDD00"/>
<path d="M299.288 213.25C302.555 207.883 306.872 203.217 312.238 199.25C317.838 195.05 323.905 191.55 330.438 188.75C337.205 185.95 344.322 183.85 351.788 182.45C359.255 181.05 366.722 180.35 374.188 180.35H378.738V223.75H374.188C365.788 223.75 357.155 225.5 348.288 229C339.422 232.267 331.255 236.7 323.788 242.3C316.555 247.667 310.605 253.733 305.938 260.5C301.505 267.267 299.288 274.033 299.288 280.8V355H255.888V175.45H299.288V213.25Z" fill="black"/>
<rect x="32" y="10" width="22" height="478" fill="#FF0000"/>
<rect x="54" y="10" width="22" height="478" fill="#1A00FF"/>
<rect x="76" y="10" width="22" height="478" fill="#00DB2C" fill-opacity="0.54"/>
<rect x="98" y="10" width="22" height="478" fill="#FF008C"/>
<rect x="120" y="11" width="22" height="476" fill="#D9D9D9"/>
<rect x="120" y="10" width="22" height="478" fill="#FF6600"/>
</svg>
