<svg width="1640" height="508" viewBox="0 0 1640 508" fill="none" xmlns="http://www.w3.org/2000/svg">
<rect x="5" y="5" width="488" height="488" rx="25" fill="white" stroke="black" stroke-width="10"/>
<path opacity="0.3" d="M10 30C10 18.9543 18.9543 10 30 10H32V488H30C18.9543 488 10 479.046 10 468V30Z" fill="#FFDD00"/>
<path d="M299.288 213.25C302.555 207.883 306.872 203.217 312.238 199.25C317.838 195.05 323.905 191.55 330.438 188.75C337.205 185.95 344.322 183.85 351.788 182.45C359.255 181.05 366.722 180.35 374.188 180.35H378.738V223.75H374.188C365.788 223.75 357.155 225.5 348.288 229C339.422 232.267 331.255 236.7 323.788 242.3C316.555 247.667 310.605 253.733 305.938 260.5C301.505 267.267 299.288 274.033 299.288 280.8V355H255.888V175.45H299.288V213.25Z" fill="black"/>
<path d="M583.675 239.2C583.675 230.567 585.308 222.517 588.575 215.05C591.841 207.35 596.158 200.583 601.525 194.75C606.891 188.917 613.075 184.367 620.075 181.1C627.075 177.6 634.075 175.85 641.075 175.85H680.975C690.075 175.85 698.125 177.833 705.125 181.8C712.358 185.533 718.308 190.433 722.975 196.5C727.875 202.333 731.608 208.983 734.175 216.45C736.975 223.683 738.375 230.8 738.375 237.8V282.95H624.975V292.4C624.975 300.8 627.308 306.75 631.975 310.25C636.641 313.75 642.825 315.5 650.525 315.5H732.075V354.7H641.425C633.491 354.7 626.025 353.183 619.025 350.15C612.025 346.883 605.841 342.567 600.475 337.2C595.341 331.833 591.258 325.417 588.225 317.95C585.191 310.483 583.675 302.317 583.675 293.45V239.2ZM625.325 249.7H697.775V247.95C697.775 238.85 695.441 231.383 690.775 225.55C686.108 219.483 679.808 216.45 671.875 216.45H650.175C646.441 216.45 643.058 217.383 640.025 219.25C636.991 220.883 634.425 223.1 632.325 225.9C630.225 228.7 628.475 232.083 627.075 236.05C625.908 239.783 625.325 243.75 625.325 247.95V249.7Z" fill="black"/>
<path d="M1046.73 233.2C1047.43 225.733 1049.07 218.617 1051.63 211.85C1054.43 205.083 1058.4 199.133 1063.53 194C1068.67 188.867 1075.08 184.783 1082.78 181.75C1090.48 178.483 1099.35 176.85 1109.38 176.85H1130.38C1140.88 176.85 1149.98 178.6 1157.68 182.1C1165.62 185.6 1172.15 190.267 1177.28 196.1C1182.42 201.7 1186.27 208.233 1188.83 215.7C1191.4 222.933 1192.68 230.283 1192.68 237.75V355H1093.28C1085.58 355 1078.7 353.6 1072.63 350.8C1066.57 347.767 1061.43 343.917 1057.23 339.25C1053.27 334.35 1050.23 328.633 1048.13 322.1C1046.27 315.567 1045.33 308.567 1045.33 301.1C1045.33 293.867 1046.38 287.1 1048.48 280.8C1050.58 274.5 1053.62 269.133 1057.58 264.7C1061.55 260.033 1066.45 256.417 1072.28 253.85C1078.35 251.05 1085.12 249.65 1092.58 249.65H1152.43V246.15C1152.43 241.95 1152.08 238.1 1151.38 234.6C1150.68 230.867 1149.4 227.717 1147.53 225.15C1145.67 222.583 1142.87 220.6 1139.13 219.2C1135.4 217.567 1130.38 216.75 1124.08 216.75H1115.33C1106 216.75 1099.35 218.15 1095.38 220.95C1091.42 223.517 1088.73 227.6 1087.33 233.2H1046.73ZM1082.78 301.1C1082.78 307.167 1083.95 311.717 1086.28 314.75C1088.85 317.55 1091.65 318.95 1094.68 318.95H1152.43V283.25H1094.68C1091.65 283.25 1088.85 284.767 1086.28 287.8C1083.95 290.833 1082.78 295.267 1082.78 301.1Z" fill="black"/>
<path d="M1460.07 355C1449.81 355 1440.59 353.483 1432.42 350.45C1424.49 347.417 1417.61 343.1 1411.77 337.5C1406.17 331.667 1401.86 324.783 1398.82 316.85C1395.79 308.683 1394.27 299.7 1394.27 289.9V241.95C1394.27 231.917 1395.79 222.933 1398.82 215C1401.86 207.067 1406.17 200.3 1411.77 194.7C1417.61 189.1 1424.49 184.783 1432.42 181.75C1440.59 178.483 1449.81 176.85 1460.07 176.85H1474.07C1483.87 176.85 1492.74 178.25 1500.67 181.05V116.65H1539.87V355H1460.07ZM1500.67 314.75V243C1500.67 235.3 1498.11 229.117 1492.97 224.45C1487.84 219.55 1481.54 217.1 1474.07 217.1H1460.07C1452.61 217.1 1446.19 219.55 1440.82 224.45C1435.69 229.117 1433.12 235.3 1433.12 243V288.5C1433.12 296.2 1435.69 302.5 1440.82 307.4C1446.19 312.3 1452.61 314.75 1460.07 314.75H1500.67Z" fill="black"/>
<path d="M873.49 310.3H913.39V348.45H873.49V310.3ZM873.49 195.85H913.39V234H873.49V195.85Z" fill="black"/>
<rect x="32" y="10" width="22" height="478" fill="#FF0000"/>
<rect x="54" y="10" width="22" height="478" fill="#1A00FF"/>
<rect x="76" y="10" width="22" height="478" fill="#00DB2C" fill-opacity="0.54"/>
<rect x="98" y="10" width="22" height="478" fill="#FF008C"/>
<rect x="120" y="11" width="22" height="476" fill="#D9D9D9"/>
<rect x="120" y="10" width="22" height="478" fill="#FF6600"/>
</svg>
